<svg xmlns="http://www.w3.org/2000/svg" width="1788" height="400" viewBox="0 0 1788 400">
  <g fill="none" fill-rule="evenodd">
    <path fill="#FF9800" d="M3.23130364,164 L288.623938,164 C289.793601,164 290.856612,163.320189 291.347248,162.258405 L316.318602,108.217968 C317.0136,106.713926 316.35774,104.931251 314.853697,104.236253 C314.459106,104.053918 314.029604,103.95951 313.594922,103.959563 L24.5061241,103.995247 C58.4827562,42.018739 124.334377,0 200,0 C310.45695,0 400,89.54305 400,200 C400,310.45695 310.45695,400 200,400 C89.54305,400 0,310.45695 0,200 C0,187.709554 1.10861576,175.67804 3.23130364,164 Z M126,328 L126,328 C126,330.209139 127.790861,332 130,332 L135.175293,332 L198.671875,252 L247.898404,252 C249.067037,252 250.129308,251.321372 250.620519,250.260989 L275.621322,196.291389 C275.804295,195.896403 275.899117,195.466329 275.899208,195.031021 C275.89955,193.374167 274.556683,192.030743 272.899828,192.0304 L126,192 L126,328 Z"/>
    <path fill="#444" d="M0.748,6.732 C0.748,5.51599392 1.16599582,4.49000418 2.002,3.654 C2.83800418,2.81799582 3.86399392,2.4 5.08,2.4 L109.280152,2.4 C110.937007,2.4 112.280152,3.74314575 112.280152,5.4 C112.280152,5.83454077 112.185752,6.26389483 112.003483,6.65836084 L102.401985,27.4378145 C101.747816,28.8535589 100.330451,29.76 98.7708775,29.76 L30.388,29.76 L30.388,72.624 L76.8241838,72.624 C78.4810381,72.624 79.8241838,73.9671458 79.8241838,75.624 C79.8241838,76.0587509 79.7296925,76.4883076 79.5472527,76.8829265 L69.9404293,97.6625686 C69.2860927,99.0779043 67.8689436,99.984 66.3096708,99.984 L30.388,99.984 L30.388,157.668 C30.388,158.884006 29.9700042,159.909996 29.134,160.746 C28.2979958,161.582004 27.2720061,162 26.056,162 L5.08,162 C3.86399392,162 2.83800418,161.582004 2.002,160.746 C1.16599582,159.909996 0.748,158.884006 0.748,157.668 L0.748,6.732 Z M213.088,107.508 L190.288,57.348 L189.604,57.348 L167.26,107.508 L213.088,107.508 Z M118.468,162 C116.795992,162 115.542004,161.392006 114.706,160.176 C113.869996,158.959994 113.831996,157.592008 114.592,156.072 L185.5,2.628 C186.412005,0.95599164 187.703992,0.12 189.376,0.12 L191.656,0.12 C192.872006,0.12 193.745997,0.34799772 194.278,0.804 C194.810003,1.26000228 195.227998,1.8679962 195.532,2.628 L265.756,156.072 C266.516004,157.592008 266.478004,158.959994 265.642,160.176 C264.805996,161.392006 263.552008,162 261.88,162 L242.044,162 C240.371992,162 239.042005,161.658003 238.054,160.974 C237.065995,160.289997 236.192004,159.112008 235.432,157.44 L224.26,132.816 L156.088,132.816 L144.916,157.44 C144.459998,158.656006 143.700005,159.719995 142.636,160.632 C141.571995,161.544005 140.128009,162 138.304,162 L118.468,162 Z M298.504,4.224 C298.504,3.00799392 298.921996,2.0200038 299.758,1.26 C300.594004,0.4999962 301.619994,0.12 302.836,0.12 L308.536,0.12 L403.384,100.896 L403.612,100.896 L403.612,6.732 C403.612,5.51599392 404.029996,4.49000418 404.866,3.654 C405.702004,2.81799582 406.727994,2.4 407.944,2.4 L428.92,2.4 C430.136006,2.4 431.161996,2.81799582 431.998,3.654 C432.834004,4.49000418 433.252,5.51599392 433.252,6.732 L433.252,160.176 C433.252,161.392006 432.834004,162.379996 431.998,163.14 C431.161996,163.900004 430.136006,164.28 428.92,164.28 L423.448,164.28 L328.144,59.628 L327.916,59.628 L327.916,157.668 C327.916,158.884006 327.498004,159.909996 326.662,160.746 C325.825996,161.582004 324.800006,162 323.584,162 L302.836,162 C301.619994,162 300.594004,161.582004 299.758,160.746 C298.921996,159.909996 298.504,158.884006 298.504,157.668 L298.504,4.224 Z M564.496,107.508 L541.696,57.348 L541.012,57.348 L518.668,107.508 L564.496,107.508 Z M469.876,162 C468.203992,162 466.950004,161.392006 466.114,160.176 C465.277996,158.959994 465.239996,157.592008 466,156.072 L536.908,2.628 C537.820005,0.95599164 539.111992,0.12 540.784,0.12 L543.064,0.12 C544.280006,0.12 545.153997,0.34799772 545.686,0.804 C546.218003,1.26000228 546.635998,1.8679962 546.94,2.628 L617.164,156.072 C617.924004,157.592008 617.886004,158.959994 617.05,160.176 C616.213996,161.392006 614.960008,162 613.288,162 L593.452,162 C591.779992,162 590.450005,161.658003 589.462,160.974 C588.473995,160.289997 587.600004,159.112008 586.84,157.44 L575.668,132.816 L507.496,132.816 L496.324,157.44 C495.867998,158.656006 495.108005,159.719995 494.044,160.632 C492.979995,161.544005 491.536009,162 489.712,162 L469.876,162 Z M671.344,29.76 L636.46,29.76 C635.243994,29.76 634.218004,29.3420042 633.382,28.506 C632.545996,27.6699958 632.128,26.6440061 632.128,25.428 L632.128,6.732 C632.128,5.51599392 632.545996,4.49000418 633.382,3.654 C634.218004,2.81799582 635.243994,2.4 636.46,2.4 L736.096,2.4 C737.312006,2.4 738.337996,2.81799582 739.174,3.654 C740.010004,4.49000418 740.428,5.51599392 740.428,6.732 L740.428,25.428 C740.428,26.6440061 740.010004,27.6699958 739.174,28.506 C738.337996,29.3420042 737.312006,29.76 736.096,29.76 L701.212,29.76 L701.212,157.668 C701.212,158.884006 700.794004,159.909996 699.958,160.746 C699.121996,161.582004 698.096006,162 696.88,162 L675.676,162 C674.459994,162 673.434004,161.582004 672.598,160.746 C671.761996,159.909996 671.344,158.884006 671.344,157.668 L671.344,29.76 Z M776.14,6.732 C776.14,5.51599392 776.557996,4.49000418 777.394,3.654 C778.230004,2.81799582 779.255994,2.4 780.472,2.4 L801.676,2.4 C802.892006,2.4 803.917996,2.81799582 804.754,3.654 C805.590004,4.49000418 806.008,5.51599392 806.008,6.732 L806.008,157.668 C806.008,158.884006 805.590004,159.909996 804.754,160.746 C803.917996,161.582004 802.892006,162 801.676,162 L780.472,162 C779.255994,162 778.230004,161.582004 777.394,160.746 C776.557996,159.909996 776.14,158.884006 776.14,157.668 L776.14,6.732 Z M847.876,82.428 C847.876,71.027943 850.041978,60.3120502 854.374,50.28 C858.706022,40.2479498 864.557963,31.5460369 871.93,24.174 C879.302037,16.8019631 888.00395,10.9500217 898.036,6.618 C908.06805,2.28597834 918.783943,0.12 930.184,0.12 C941.736058,0.12 951.881956,1.90598214 960.622,5.478 C969.362044,9.05001786 977.607961,14.331965 985.36,21.324 C987.640011,23.4520106 987.716011,25.5799894 985.588,27.708 L971.68,42.072 C969.855991,44.0480099 967.95601,44.0480099 965.98,42.072 C961.115976,37.8159787 955.64403,34.5100118 949.564,32.154 C943.48397,29.7979882 937.252032,28.62 930.868,28.62 C923.571964,28.62 916.808031,30.0259859 910.576,32.838 C904.343969,35.6500141 898.986022,39.4879757 894.502,44.352 C890.017978,49.2160243 886.484013,54.8779677 883.9,61.338 C881.315987,67.7980323 880.024,74.5999643 880.024,81.744 C880.024,88.8880357 881.315987,95.6519681 883.9,102.036 C886.484013,108.420032 890.055977,114.005976 894.616,118.794 C899.176023,123.582024 904.571969,127.381986 910.804,130.194 C917.036031,133.006014 923.799964,134.412 931.096,134.412 C937.936034,134.412 944.243971,133.234012 950.02,130.878 C955.796029,128.521988 961.115976,125.36802 965.98,121.416 C966.892005,120.655996 967.879995,120.276 968.944,120.276 C970.008005,120.276 970.919996,120.655996 971.68,121.416 L985.816,136.008 C986.728005,136.768004 987.108001,137.793994 986.956,139.086 C986.803999,140.378006 986.348004,141.403996 985.588,142.164 C977.835961,149.764038 969.210047,155.349982 959.71,158.922 C950.209953,162.494018 940.368051,164.28 930.184,164.28 C918.783943,164.28 908.06805,162.152021 898.036,157.896 C888.00395,153.639979 879.302037,147.826037 871.93,140.454 C864.557963,133.081963 858.706022,124.41805 854.374,114.462 C850.041978,104.50595 847.876,93.828057 847.876,82.428 Z M1105.204,107.508 L1082.404,57.348 L1081.72,57.348 L1059.376,107.508 L1105.204,107.508 Z M1010.584,162 C1008.91199,162 1007.658,161.392006 1006.822,160.176 C1005.986,158.959994 1005.948,157.592008 1006.708,156.072 L1077.616,2.628 C1078.528,0.95599164 1079.81999,0.12 1081.492,0.12 L1083.772,0.12 C1084.98801,0.12 1085.862,0.34799772 1086.394,0.804 C1086.926,1.26000228 1087.344,1.8679962 1087.648,2.628 L1157.872,156.072 C1158.632,157.592008 1158.594,158.959994 1157.758,160.176 C1156.922,161.392006 1155.66801,162 1153.996,162 L1134.16,162 C1132.48799,162 1131.158,161.658003 1130.17,160.974 C1129.182,160.289997 1128.308,159.112008 1127.548,157.44 L1116.376,132.816 L1048.204,132.816 L1037.032,157.44 C1036.576,158.656006 1035.81601,159.719995 1034.752,160.632 C1033.68799,161.544005 1032.24401,162 1030.42,162 L1010.584,162 Z M1190.62,6.732 C1190.62,5.51599392 1191.038,4.49000418 1191.874,3.654 C1192.71,2.81799582 1193.73599,2.4 1194.952,2.4 L1215.928,2.4 C1217.14401,2.4 1218.17,2.81799582 1219.006,3.654 C1219.842,4.49000418 1220.26,5.51599392 1220.26,6.732 L1220.26,134.64 L1284.74926,134.64 C1286.40611,134.64 1287.74926,135.983146 1287.74926,137.64 C1287.74926,138.074531 1287.65486,138.503877 1287.4726,138.898336 L1277.87133,159.677781 C1277.21717,161.093544 1275.7998,162 1274.24021,162 L1194.952,162 C1193.73599,162 1192.71,161.582004 1191.874,160.746 C1191.038,159.909996 1190.62,158.884006 1190.62,157.668 L1190.62,6.732 Z" transform="translate(500 118)"/>
  </g>
</svg>
