<?xml version="1.0" encoding="UTF-8"?>
<svg id="Warstwa_2" data-name="Warstwa 2" xmlns="http://www.w3.org/2000/svg" viewBox="0 0 2036.8 593.83">
  <defs>
    <style>
      .cls-1 {
        fill: #ffde00;
      }

      .cls-1, .cls-2, .cls-3, .cls-4, .cls-5, .cls-6 {
        stroke-width: 0px;
      }

      .cls-3 {
        fill: #d94726;
      }

      .cls-4 {
        fill: #fff;
      }

      .cls-5 {
        fill: #f26621;
      }

      .cls-6 {
        fill: #ffc20d;
      }
    </style>
  </defs>
  <g id="_2B_horizontal_dark" data-name="2B horizontal dark">
    <g>
      <g>
        <path class="cls-4" d="M823.28,297.84c0-12.33-9.92-22-22.59-22-9.68,0-15.12,5.48-18.56,10.02l-75.67,84.44-41.55-.57v-72.17c0-12.49-9.79-22.28-22.29-22.28s-22.59,9.79-22.59,22.28v175.8c0,12.5,9.93,22.3,22.59,22.3s22.29-9.8,22.29-22.3v-63.53l33.26.57c.55,0,13.72-.12,14.25-.16l67.67,77.82c5.27,5.65,10.88,8.17,18.21,8.17,11.83,0,21.09-9.27,21.09-21.09,0-6.42-2.5-11.73-7.6-16.44l-62.75-70.81,68.31-74.43c2.86-3.72,5.92-8.31,5.92-15.61Z"/>
        <path class="cls-4" d="M895.32,275.84c-12.67,0-22.59,9.79-22.59,22.28v175.8c0,12.5,9.92,22.3,22.59,22.3s22.29-9.8,22.29-22.3v-175.8c0-12.49-9.79-22.28-22.29-22.28Z"/>
        <path class="cls-4" d="M1402.79,368.9h-31.51c-11.3,0-20.49,9.06-20.49,20.19s9.19,19.9,20.49,19.9h10.42v33.04c-12.68,8.83-29.5,13.87-46.48,13.87-39.51,0-67.1-27.24-67.1-69.46,0-38.48,28.63-69.8,63.81-69.8,19.23,0,33.26,4.54,48.51,15.72,3.47,2.42,7.82,4.91,13.68,4.91,12.29,0,22.29-9.99,22.29-22.28,0-10.26-6.36-16.14-9.16-18.25-21.44-15.4-43.52-21.98-73.82-21.98-62.79,0-111.98,49.32-111.98,112.87s47.35,109.85,112.58,109.85c34.38,0,60.68-12.73,76.58-23.33,9.94-6.16,14.77-14.92,14.77-26.76v-55.91c0-12.67-9.92-22.59-22.59-22.59Z"/>
        <path class="cls-4" d="M1646.57,275.84c-12.67,0-22.59,9.79-22.59,22.28v102.21c0,34.79-17.25,53.95-48.57,53.95s-48.87-19.69-48.87-55.45v-100.72c0-12.49-9.79-22.28-22.29-22.28s-22.59,9.79-22.59,22.28v102.21c0,61.09,33.95,96.13,93.15,96.13s94.04-35.69,94.04-97.93v-100.42c0-12.49-9.79-22.28-22.29-22.28Z"/>
        <path class="cls-4" d="M1871.9,496.43c12.67,0,22.59-9.79,22.59-22.28v-102.18c0-34.79,17.25-53.95,48.57-53.95s48.87,19.69,48.87,55.45v100.69c0,12.49,9.79,22.28,22.29,22.28s22.59-9.79,22.59-22.28v-102.18c0-61.09-33.95-96.13-93.15-96.13s-94.04,35.69-94.04,97.93v100.39c0,12.49,9.79,22.28,22.29,22.28Z"/>
        <path class="cls-4" d="M1007.24,496.03c12.67,0,22.59-9.79,22.59-22.28v-101.77c0-34.79,17.25-53.95,48.57-53.95s48.86,19.69,48.86,55.45v100.69c0,12.49,9.79,22.28,22.29,22.28s22.59-9.79,22.59-22.28v-102.18c0-61.09-33.95-96.13-93.14-96.13s-94.04,35.69-94.04,97.93v99.98c0,12.49,9.79,22.28,22.29,22.28Z"/>
        <path class="cls-4" d="M1760.63,275.84c-12.67,0-22.58,9.79-22.58,22.28v175.8c0,12.5,9.92,22.3,22.58,22.3s22.29-9.79,22.29-22.3v-175.8c0-12.49-9.79-22.28-22.29-22.28Z"/>
      </g>
      <g>
        <g>
          <path class="cls-4" d="M473.77,512.75c0-2.31-.77-4.18-2.32-5.6-1.55-1.42-3.79-2.14-6.72-2.14h-7.8c-1.16,0-2.03.31-2.63.93-.6.61-.9,1.49-.9,2.6v19.93c0,2.07.99,3.1,2.97,3.1s2.97-1.03,2.97-3.1v-7.28l2.72-.03c.83,0,1.55.16,2.17.47.62.31,1.07.92,1.36,1.82l1.8,5.76c.21.7.54,1.27.99,1.7.45.43,1.03.65,1.73.65,1.07,0,1.92-.31,2.54-.93.62-.62.72-1.53.31-2.73l-1.36-4.15c-.58-1.82-1.27-2.99-2.07-3.53-.33-.22-.71-.38-1.12-.51,1.21-.31,2.24-.81,3.07-1.5,1.53-1.26,2.29-3.09,2.29-5.48ZM463.93,516.71h-4.64v-7.24h4.64c1.4,0,2.45.29,3.16.87.7.58,1.05,1.49,1.05,2.73s-.35,2.21-1.05,2.79c-.7.57-1.75.87-3.16.87Z"/>
          <path class="cls-4" d="M483.7,509.28c-1.14-2.73-2.71-5.09-4.74-7.12-2.02-2.02-4.39-3.6-7.12-4.74-2.72-1.13-5.68-1.7-8.85-1.7s-6.13.57-8.85,1.7c-2.72,1.13-5.11,2.72-7.15,4.74-2.04,2.03-3.63,4.39-4.77,7.12-1.14,2.73-1.7,5.68-1.7,8.85s.57,6.13,1.7,8.86c1.13,2.72,2.72,5.1,4.77,7.15,2.04,2.04,4.43,3.63,7.15,4.77,2.72,1.13,5.67,1.7,8.85,1.7s6.13-.57,8.85-1.7c2.72-1.13,5.1-2.73,7.12-4.77,2.02-2.05,3.6-4.43,4.74-7.15,1.13-2.73,1.7-5.68,1.7-8.86s-.57-6.13-1.7-8.85ZM480.52,525.72c-.95,2.33-2.27,4.36-3.96,6.1-1.69,1.73-3.69,3.08-6,4.06-2.31.97-4.83,1.46-7.55,1.46s-5.24-.49-7.55-1.46c-2.31-.97-4.32-2.32-6.04-4.06-1.71-1.73-3.04-3.76-3.99-6.1-.95-2.33-1.42-4.86-1.42-7.59s.47-5.25,1.42-7.58c.95-2.33,2.28-4.35,3.99-6.07,1.71-1.71,3.72-3.05,6.04-4.03,2.31-.97,4.83-1.46,7.55-1.46s5.24.49,7.55,1.46c2.31.97,4.31,2.31,6,4.03,1.69,1.71,3.01,3.73,3.96,6.07.95,2.33,1.42,4.86,1.42,7.58s-.47,5.25-1.42,7.59Z"/>
        </g>
        <g>
          <g>
            <g>
              <path class="cls-4" d="M48.19,276.97c8.16-10.79,21.01-32.12,42.29-91.08,0,0,15.48-39.69,45.96-70.09.01-.04.03-.1.04-.14-54.44,43.43-60.03,106.34-99.07,161.34-59.53,83.85-41.24,183.75,7.72,237.7-60.27-87.66-36.78-185.06,3.07-237.73Z"/>
              <path class="cls-4" d="M349.95,185.89c21.27,58.95,34.13,80.29,42.29,91.08,39.84,52.67,63.34,150.07,3.07,237.73,48.96-53.95,67.24-153.84,7.72-237.69-39.04-55-44.63-117.91-99.07-161.34.01.04.03.09.04.14-.48-.48-.93-.98-1.42-1.45,31.44,30.57,47.38,71.55,47.38,71.55Z"/>
            </g>
            <g>
              <path class="cls-2" d="M284.84,197.84c-8.46-3.94-18.52-1.04-24.9,6.43-2.14,2.51-1.11,6.37,1.77,7.16,3.75,1.02,8.99,2.69,14.36,5.2,5.36,2.5,10.01,5.43,13.2,7.65,2.6,1.8,6.2-.24,6.71-3.69,1.42-9.53-2.83-18.86-11.15-22.74Z"/>
              <path class="cls-2" d="M155.59,197.84c8.46-3.94,18.52-1.04,24.9,6.43,2.14,2.51,1.11,6.37-1.77,7.16-3.75,1.02-8.99,2.69-14.36,5.2-5.36,2.5-10.01,5.43-13.2,7.65-2.6,1.8-6.2-.24-6.71-3.69-1.42-9.53,2.83-18.86,11.15-22.74Z"/>
            </g>
            <path class="cls-2" d="M392.24,276.97c-8.16-10.79-21.02-32.12-42.29-91.08,0,0-15.94-40.98-47.38-71.55v.07s-28.87,12.94-82.36,12.94-82.35-12.94-82.35-12.94v-.07c-31.45,30.57-47.39,71.55-47.39,71.55-21.27,58.95-34.13,80.29-42.29,91.08-42.85,56.65-66.85,165.04,11.99,257.39,12.1,14.17,18.43,1.94,12.1-14.17-34.22-87.11,19.93-191.3,38.71-220.18,9.26-14.24,11.83-34.45,8.6-51.12-16.88-87.09,37.57-93.9,37.57-93.9,38.73-3.52,49.51,31.9,52.51,51.9,3.06-2.51,6.79-3.81,10.55-3.81,3.76,0,7.49,1.3,10.55,3.81,3-20,13.78-55.43,52.51-51.91,0,0,54.45,6.81,37.56,93.9-3.23,16.67-.66,36.88,8.6,51.12,18.78,28.88,72.93,133.08,38.71,220.18-6.33,16.12,0,28.34,12.1,14.17,78.84-92.35,54.84-200.75,11.99-257.39Z"/>
            <g>
              <path class="cls-3" d="M245.22,242.46c-5-.57-13.51-1.95-25-1.95s-20.01,1.38-25,1.95l14.42,17.77c2.73,3.36,6.66,5.04,10.59,5.04,3.93,0,7.86-1.68,10.59-5.04l14.42-17.77h0Z"/>
              <path class="cls-5" d="M251.78,232.18l-18.61-22.92c-3.34-4.11-8.15-6.17-12.96-6.17-4.81,0-9.62,2.06-12.96,6.17l-18.61,22.92c-3.22,3.97-.86,11.12,6.56,10.28,5-.57,13.51-1.95,25-1.95s20.01,1.38,25,1.95c7.42.85,9.78-6.31,6.56-10.28Z"/>
            </g>
            <path class="cls-4" d="M329.49,300.01c-9.26-14.24-11.83-34.45-8.6-51.12,16.88-87.09-37.57-93.9-37.57-93.9-38.71-3.52-49.49,31.86-52.5,51.87.86.7,1.67,1.49,2.4,2.39l18.61,22.92c3.22,3.97.86,11.12-6.56,10.28l-14.42,17.77c-2.73,3.36-6.66,5.04-10.59,5.04-.02,0-.04,0-.06,0h0s-.04,0-.06,0c-3.93,0-7.86-1.68-10.59-5.04l-14.42-17.77c-7.42.85-9.78-6.31-6.56-10.28l18.61-22.92c.73-.9,1.55-1.69,2.4-2.39-3.01-20.01-13.8-55.39-52.5-51.87,0,0-54.45,6.81-37.57,93.9,3.23,16.67.66,36.88-8.6,51.12-18.15,27.91-69.3,126.15-41.83,211.34.62,1.46,1.28,2.89,1.95,4.31,5.75,13.58,15.18,26.06,27.5,36.85,8.98,8.03,19.17,14.74,30.07,20.25,27.05,14.05,59.32,21.07,91.59,21.06h0c32.27.01,64.54-7.01,91.59-21.06,10.9-5.51,21.08-12.23,30.07-20.25,12.32-10.8,21.75-23.27,27.5-36.85.68-1.42,1.33-2.85,1.95-4.31,27.47-85.19-23.68-183.43-41.83-211.34ZM178.71,211.43c-3.75,1.02-8.99,2.69-14.36,5.2-5.36,2.5-10.01,5.43-13.2,7.65-2.6,1.8-6.2-.24-6.71-3.69-1.42-9.53,2.83-18.86,11.15-22.74,8.46-3.94,18.52-1.04,24.9,6.43,2.14,2.51,1.11,6.37-1.77,7.16ZM295.99,220.59c-.51,3.46-4.11,5.5-6.71,3.69-3.19-2.22-7.84-5.15-13.2-7.65-5.37-2.51-10.61-4.18-14.36-5.2-2.88-.78-3.91-4.65-1.77-7.16,6.38-7.47,16.44-10.37,24.9-6.43,8.32,3.88,12.56,13.21,11.15,22.74Z"/>
          </g>
          <g>
            <path class="cls-1" d="M220.21,0l-40.33,68.07-50.65-44.33,6.99,73.44c52.32,40.39,124.32-29.11,124.32-29.11L220.21,0Z"/>
            <polygon class="cls-5" points="260.54 68.07 281.08 50.09 268.51 22.46 250.13 50.5 260.54 68.07"/>
            <polygon class="cls-5" points="179.89 68.07 190.3 50.5 171.92 22.46 159.34 50.09 179.89 68.07"/>
            <path class="cls-6" d="M260.54,68.07s-72,69.5-124.32,29.11l1.64,17.23s28.87,12.94,82.35,12.94,82.35-12.94,82.35-12.94l8.62-90.68-50.65,44.33"/>
          </g>
        </g>
      </g>
    </g>
  </g>
</svg>